<svg xmlns="http://www.w3.org/2000/svg" xmlns:xlink="http://www.w3.org/1999/xlink" viewBox="0 0 135.347 35"><path d="M 17.476 0 L 21.608 5.566 L 19.494 7.135 L 17.499 4.448 L 15.623 7.028 L 13.493 5.48 Z M 29.912 5.155 L 28.854 11.846 L 26.253 11.434 L 26.751 8.284 L 23.44 8.773 L 23.055 6.168 Z M 5.113 5.18 L 11.97 6.194 L 11.585 8.799 L 8.274 8.309 L 8.773 11.46 L 6.172 11.871 L 5.113 5.18 Z M 4.448 17.527 L 7.135 15.532 L 5.566 13.417 L 0 17.549 L 5.48 21.532 L 7.028 19.402 L 4.448 17.527 Z M 29.434 13.417 L 35 17.549 L 29.52 21.532 L 27.972 19.402 L 30.552 17.527 L 27.865 15.532 Z M 8.297 26.751 L 8.786 23.44 L 6.181 23.055 L 5.167 29.912 L 11.858 28.854 L 11.447 26.253 Z M 28.857 23.068 L 29.871 29.925 L 23.18 28.867 L 23.591 26.265 L 26.741 26.764 L 26.252 23.453 Z M 21.608 29.434 L 17.476 35 L 13.493 29.52 L 15.623 27.972 L 17.499 30.552 L 19.494 27.865 Z" fill="rgb(0,0,0)"></path><path d="M 42.639 25.484 L 50.034 25.484 C 53.173 25.484 55.08 23.526 55.08 20.728 C 55.08 18.817 54.01 17.442 52.476 16.836 C 53.731 16.16 54.615 14.831 54.615 13.246 C 54.615 10.752 52.731 9.167 49.755 9.167 L 42.639 9.167 Z M 45.499 22.85 L 45.499 18.164 L 49.639 18.164 C 51.266 18.164 52.173 18.98 52.173 20.472 C 52.173 21.964 51.243 22.85 49.639 22.85 Z M 45.499 15.693 L 45.499 11.801 L 49.359 11.801 C 50.801 11.801 51.708 12.453 51.708 13.735 C 51.708 14.971 50.848 15.693 49.359 15.693 Z M 60.398 25.484 L 62.816 25.484 L 62.816 23.036 L 61.491 23.036 C 60.933 23.036 60.724 22.803 60.724 22.267 L 60.724 9.167 L 57.956 9.167 L 57.956 23.223 C 57.956 24.854 58.7 25.484 60.398 25.484 Z M 69.91 25.833 C 73.421 25.833 75.84 23.409 75.84 19.796 C 75.84 16.183 73.421 13.759 69.91 13.759 C 66.421 13.759 64.003 16.183 64.003 19.796 C 64.003 23.409 66.421 25.833 69.91 25.833 Z M 66.863 19.796 C 66.863 17.698 68.072 16.276 69.91 16.276 C 71.747 16.276 72.979 17.698 72.979 19.796 C 72.979 21.894 71.747 23.316 69.91 23.316 C 68.072 23.316 66.863 21.894 66.863 19.796 Z M 80.326 25.484 L 83.605 25.484 L 85.838 17.232 L 88.047 25.484 L 91.326 25.484 L 94.721 14.108 L 91.838 14.108 L 89.628 22.383 L 87.419 14.108 L 84.233 14.108 L 82.024 22.383 L 79.815 14.108 L 76.931 14.108 Z M 98.387 12.407 L 98.387 14.108 L 95.48 14.108 L 95.48 16.556 L 98.387 16.556 L 98.387 25.484 L 101.154 25.484 L 101.154 16.556 L 104.805 16.556 L 104.805 14.108 L 101.154 14.108 L 101.154 12.71 C 101.154 11.941 101.596 11.614 102.317 11.614 L 105.503 11.614 L 105.503 9.167 L 101.689 9.167 C 99.619 9.167 98.387 10.309 98.387 12.407 Z M 106.961 25.484 L 109.728 25.484 L 109.728 14.108 L 106.961 14.108 Z M 106.868 12.127 L 109.844 12.127 L 109.844 9.283 L 106.868 9.283 Z M 117.069 25.833 C 120.092 25.833 121.975 24.365 121.975 22.08 C 121.975 20.192 120.743 18.934 118.603 18.677 L 116.766 18.467 C 115.627 18.327 115.092 17.955 115.092 17.279 C 115.092 16.486 115.836 16.02 117.022 16.02 C 118.278 16.02 119.069 16.439 119.115 17.348 L 121.883 17.348 C 121.743 14.971 119.929 13.759 117.069 13.759 C 114.185 13.759 112.371 15.157 112.371 17.418 C 112.371 19.353 113.697 20.612 115.813 20.845 L 117.626 21.031 C 118.626 21.125 119.185 21.498 119.185 22.22 C 119.185 23.059 118.417 23.596 117.162 23.596 C 115.767 23.596 114.953 23.129 114.86 22.174 L 111.999 22.174 C 112.115 24.575 113.976 25.833 117.069 25.833 Z M 124.235 25.484 L 127.002 25.484 L 127.002 18.98 C 127.002 17.348 128.002 16.276 129.514 16.276 C 130.979 16.276 131.816 17.115 131.816 18.887 L 131.816 25.484 L 134.583 25.484 L 134.583 18.607 C 134.583 15.53 132.863 13.759 130.072 13.759 C 128.816 13.759 127.723 14.178 127.002 14.994 L 127.002 9.167 L 124.235 9.167 Z" fill="rgb(0,0,0)"></path></svg>